<?xml version="1.0" encoding="utf-8"?>
<!-- Generator: Adobe Illustrator 20.0.0, SVG Export Plug-In . SVG Version: 6.00 Build 0)  -->
<svg version="1.1" id="Layer_1" xmlns="http://www.w3.org/2000/svg" xmlns:xlink="http://www.w3.org/1999/xlink" x="0px" y="0px"
	 viewBox="0 0 20 38.8" enable-background="new 0 0 20 38.8" xml:space="preserve">
<path fill="#7BE0FF" d="M10.8,32.6v3.2h5v2h-5h-3h-5v-2h5v-3.2C3.4,32,0,28.5,0,24.2v-3c0-0.1,0-0.3,0-0.4h2.8
	c0,0.3-0.1,0.6-0.1,0.9v2.1c0,3.3,2.9,6,6.5,6s6.5-2.7,6.5-6v-2.1c0-0.3,0-0.6-0.1-0.9h2.8c0,0.1,0,0.3,0,0.4v3
	C18.6,28.5,15.2,32,10.8,32.6z M9.3,27.8c-2.5,0-4.5-2-4.5-4.5v-9c0-2.5,2-4.5,4.5-4.5s4.5,2,4.5,4.5v9
	C13.8,25.8,11.8,27.8,9.3,27.8z"/>
</svg>
